Title                            : Warrior
Year                             : 2011
Genre                            : Action | Drama | Sport
iMDB URL                         : http://www.imdb.com/title/tt1291584/

Complete name                    : Warrior.2011.BRRIP.720P.H264-ZEKTORM.mp4
Format                           : MPEG-4
Format profile                   : Base Media
Codec ID                         : isom
File size                        : 3.08 GiB
Duration                         : 2h 19mn
Overall bit rate                 : 3150 Kbps
Subtitles                        : English (Format: srt)
Video
ID                               : 1
Format                           : AVC
Format/Info                      : Advanced Video Codec
Format profile                   : High@L4.1
Format settings, CABAC           : Yes
Format settings, ReFrames        : 5 frames
Codec ID                         : avc1
Codec ID/Info                    : Advanced Video Coding
Duration                         : 2h 19mn
Bit rate mode                    : Variable
Bit rate                         : 2933 Kbps
Width                            : 1280 pixels
Height                           : 528 pixels
Display aspect ratio             : 2.424
Frame rate mode                  : Constant
Frame rate                       : 23.976 fps
Resolution                       : 24 bits
Colorimetry                      : 4:2:0
Scan type                        : Progressive
Bits/(Pixel*Frame)               : 0.181
Stream size                      : 2.86 GiB (93%)
Title                            : Video
Writing library                  : x264

Audio
ID                               : 2
Format                           : AAC
Format/Info                      : Advanced Audio Codec
Format version                   : Version 4
Format profile                   : LC
Format settings, SBR             : Yes
Format settings, PS              : No
Codec ID                         : 40
Duration                         : 2h 19mn
Bit rate mode                    : Variable
Bit rate                         : 215 Kbps
Maximum bit rate                 : 281 Kbps
Channel(s)                       : 6 channels
Channel positions                : Front: L C R, Rear: L R, LFE
Sampling rate                    : 48.0 KHz
Resolution                       : 16 bits
Stream size                      : 215 MiB (7%)
Title                            : English
Language                         : English


Screenshots:

[img]http://img85.imageshack.us/img85/6078/snapw1.png[/img]

[img]http://img220.imageshack.us/img220/197/snapw2.png[/img]
